<?xml version="1.0" standalone="no"?>
<!DOCTYPE svg PUBLIC "-//W3C//DTD SVG 20010904//EN"
 "http://www.w3.org/TR/2001/REC-SVG-20010904/DTD/svg10.dtd">
<svg version="1.0" xmlns="http://www.w3.org/2000/svg"
 width="747.000000pt" height="589.000000pt" viewBox="0 0 747.000000 589.000000"
 preserveAspectRatio="xMidYMid meet">

<g transform="translate(0.000000,589.000000) scale(0.100000,-0.100000)"
fill="#000000" stroke="none">
<path d="M2000 5878 c-344 -32 -643 -186 -806 -414 -39 -54 -138 -241 -163
-306 -9 -23 -15 -25 -108 -31 -212 -13 -381 -87 -537 -236 -139 -134 -218
-291 -246 -489 -5 -40 -17 -84 -26 -98 -14 -20 -15 -39 -10 -107 10 -118 22
-156 56 -175 17 -10 36 -35 49 -67 12 -28 32 -66 45 -85 l23 -34 -53 -101
c-276 -523 -294 -1124 -47 -1620 49 -98 132 -227 186 -290 l34 -39 -67 -66
c-129 -125 -183 -294 -150 -471 13 -71 69 -184 120 -242 134 -152 356 -209
554 -143 43 15 79 25 81 24 1 -2 20 -48 44 -102 111 -263 270 -462 456 -575
126 -77 335 -132 685 -182 380 -54 773 -11 1170 130 71 25 116 37 119 30 10
-31 66 -79 97 -85 99 -18 450 102 612 210 82 54 96 79 83 153 -4 29 -6 54 -4
56 2 2 25 0 51 -4 26 -4 112 -19 192 -33 194 -33 306 -40 414 -26 132 16 133
26 5 33 -87 4 -149 15 -264 45 -82 22 -216 57 -297 78 -142 38 -147 40 -163
73 -9 18 -14 35 -12 37 6 6 168 -29 377 -81 277 -69 405 -87 605 -88 218 -1
358 24 525 93 261 108 385 304 397 630 4 113 2 141 -28 285 -27 133 -33 183
-33 295 -1 189 29 301 147 555 190 409 216 478 243 644 41 253 -13 515 -141
687 -21 27 -103 113 -183 192 l-147 143 -120 -45 c-257 -96 -365 -108 -365
-42 0 47 115 163 293 296 41 31 56 48 52 59 -25 64 -48 181 -70 359 -42 324
-91 458 -215 582 -74 75 -151 119 -265 152 -72 21 -100 23 -290 23 -236 0
-320 -11 -600 -76 -367 -85 -469 -104 -670 -120 -267 -21 -485 7 -833 107
-373 108 -374 108 -572 108 -150 1 -187 -2 -260 -22 -170 -44 -340 -150 -435
-271 -38 -48 -110 -161 -117 -183 -2 -6 -26 1 -56 16 l-53 27 51 98 c75 146
162 254 275 339 27 21 25 20 -25 -4 -116 -57 -231 -164 -318 -297 -28 -43 -52
-82 -54 -88 -3 -9 -17 -9 -55 0 l-52 13 51 86 c171 290 305 408 608 533 106
44 413 139 449 139 14 0 14 1 1 10 -18 11 -107 11 -240 -2z m1375 -787 c108
-22 230 -68 311 -117 71 -43 164 -112 164 -122 0 -4 -16 -16 -35 -26 -54 -29
-115 -141 -115 -211 0 -28 -12 -32 -30 -10 -22 26 -152 120 -212 153 -265 144
-611 149 -881 11 -148 -75 -285 -195 -366 -321 -24 -38 -45 -68 -46 -68 -2 0
6 23 16 51 128 335 418 587 759 659 118 25 317 26 435 1z m-2210 -15 c149 -41
314 -147 412 -266 62 -75 135 -215 160 -310 25 -90 25 -310 0 -400 -30 -115
-150 -330 -172 -309 -3 4 0 27 7 52 9 34 9 51 1 69 -11 21 -12 19 -12 -19 -1
-23 -6 -52 -11 -65 -10 -21 -17 -23 -86 -23 l-75 0 6 35 c3 19 15 48 26 63 31
42 16 44 -16 3 -17 -22 -29 -54 -33 -81 -6 -53 -32 -85 -32 -39 0 43 52 146
90 178 27 22 41 27 72 24 45 -4 48 -1 12 13 -84 31 -215 -117 -200 -227 4 -33
1 -52 -14 -77 -11 -19 -22 -56 -24 -82 -5 -55 -9 -59 -104 -86 -197 -57 -428
-25 -617 84 -90 52 -229 190 -283 282 -281 479 5 1095 556 1195 69 13 268 4
337 -14z m3939 -8 c22 -31 20 -54 -6 -78 -42 -39 -98 -16 -98 40 0 54 74 81
104 38z m-2914 -122 c6 -8 10 -25 8 -38 -2 -18 -10 -24 -35 -26 -28 -3 -33 0
-39 24 -11 42 39 72 66 40z m-595 -83 c35 -41 68 -87 74 -104 14 -39 9 -37
-24 14 -16 23 -57 72 -93 109 -45 47 -57 65 -42 61 12 -3 50 -39 85 -80z
m1660 -58 c151 -44 300 -131 391 -227 41 -43 42 -44 48 -138 3 -52 15 -133 26
-180 26 -109 105 -270 166 -338 l47 -54 -12 -80 c-38 -248 -166 -464 -365
-615 -79 -59 -218 -126 -326 -155 -109 -29 -337 -31 -440 -4 -163 42 -297 117
-421 234 -132 125 -217 269 -265 448 -26 98 -26 340 0 439 87 325 332 578 649
670 100 29 148 34 282 30 104 -2 148 -9 220 -30z m709 -5 c23 -11 54 -31 71
-45 l29 -24 -55 6 c-49 5 -58 3 -87 -22 -58 -48 -76 -97 -80 -216 -7 -172 44
-333 137 -433 45 -48 108 -85 144 -86 35 0 88 32 113 69 29 43 30 33 4 -44
-62 -181 -195 -205 -328 -60 -88 96 -149 231 -177 392 -37 213 0 397 94 460
42 28 82 29 135 3z m82 -106 c83 -39 170 -185 200 -333 36 -179 -19 -340 -117
-343 -136 -5 -268 245 -257 485 8 168 73 239 174 191z m1265 -183 c152 -96 88
-352 -167 -673 -32 -39 -64 -94 -79 -135 -14 -37 -42 -103 -62 -145 -35 -75
-53 -96 -53 -62 0 39 -67 138 -137 204 -80 74 -170 125 -255 145 l-52 11 90
75 c49 41 107 85 127 98 l39 24 -9 61 c-4 33 -8 99 -8 144 0 79 1 85 28 108
55 48 86 21 111 -95 10 -46 22 -81 28 -79 6 2 20 33 32 69 26 80 73 155 132
209 84 77 158 90 235 41z m-5160 -381 c7 -30 14 -61 16 -67 8 -21 -15 -15 -27
6 -11 22 -28 192 -21 213 3 7 9 -12 13 -42 5 -30 13 -80 19 -110z m4342 121
c6 -25 -19 -61 -42 -61 -27 0 -54 35 -46 60 14 43 76 44 88 1z m-315 -439 c-9
-35 -18 -46 -63 -71 -96 -54 -144 -137 -171 -294 -18 -106 -25 -115 -148 -209
-97 -73 -307 -180 -323 -165 -2 2 25 21 59 43 77 47 211 178 265 259 80 120
135 257 155 392 6 43 13 79 14 81 1 2 16 -4 33 -12 41 -22 119 -20 156 3 17
10 31 18 32 17 1 -1 -3 -20 -9 -44z m-2364 -6 c22 -21 34 -62 61 -202 5 -28
12 -32 95 -59 91 -29 105 -39 71 -50 -10 -3 -44 -32 -75 -65 -66 -69 -120
-175 -137 -270 -6 -36 -13 -76 -16 -89 l-4 -24 -25 24 c-14 13 -52 58 -85 100
-47 59 -69 79 -98 88 -96 28 -223 139 -267 234 -41 89 -31 173 28 234 76 78
188 61 313 -47 25 -22 50 -40 54 -40 5 0 8 36 7 81 -1 69 2 83 18 95 27 19 33
18 60 -10z m2831 -25 c138 -68 251 -193 276 -306 l12 -53 -48 -68 c-27 -37
-93 -112 -147 -168 l-98 -100 0 53 c0 108 -52 243 -134 349 -40 52 -145 132
-172 132 -8 0 -14 5 -14 11 0 14 55 85 114 147 40 42 43 44 93 40 31 -3 78
-17 118 -37z m-4218 -207 c-87 -146 -142 -282 -173 -434 -22 -103 -25 -331 -6
-435 18 -98 28 -107 24 -22 -9 176 50 445 137 624 38 78 121 217 157 261 7 10
41 -21 58 -51 l18 -35 -32 -47 c-83 -121 -158 -325 -185 -505 -26 -171 -16
-290 37 -425 71 -181 171 -303 423 -514 190 -159 243 -212 298 -297 80 -125
118 -210 229 -513 116 -319 174 -428 286 -533 159 -150 379 -210 690 -187 210
15 358 46 765 164 307 88 284 86 331 30 21 -25 36 -48 35 -49 -2 -2 -71 -26
-154 -54 -82 -28 -235 -80 -340 -116 -104 -35 -235 -74 -291 -85 -108 -22
-317 -41 -453 -41 -46 0 -82 -2 -80 -5 3 -2 61 -14 130 -26 88 -15 168 -22
274 -22 213 -1 337 23 681 132 101 32 184 55 184 50 0 -4 -5 -11 -10 -14 -17
-10 -53 -87 -59 -125 -6 -34 -8 -35 -91 -58 -330 -89 -733 -131 -995 -103
-157 17 -503 77 -615 107 -272 74 -445 231 -638 578 l-61 109 58 63 c31 34 69
86 83 115 l26 53 24 -50 c14 -27 49 -107 78 -179 135 -336 245 -486 415 -570
69 -34 155 -60 155 -46 0 4 -16 13 -35 20 -57 20 -151 98 -205 169 -69 92
-117 196 -190 407 -60 172 -148 375 -188 433 -11 15 -22 49 -26 75 -32 214
-199 391 -407 430 -61 11 -67 16 -156 101 -106 101 -151 158 -199 254 -39 77
-44 58 -13 -44 24 -81 73 -172 130 -244 22 -28 38 -54 35 -57 -3 -3 -38 -16
-78 -30 -85 -29 -73 -36 -145 96 -99 181 -176 414 -208 632 -17 123 -20 375
-5 499 25 201 92 446 167 609 l34 75 56 -56 56 -56 -36 -58z m3790 134 c36
-34 29 -70 -19 -107 -15 -11 -21 -8 -48 23 -17 19 -40 38 -51 41 -24 8 -17 21
25 46 40 25 64 24 93 -3z m-102 -89 c39 -35 42 -50 17 -96 -13 -25 -21 -30
-32 -23 -8 5 -36 10 -62 10 -27 0 -48 2 -48 4 0 12 31 89 45 110 22 34 37 33
80 -5z m265 -57 c137 -84 254 -340 221 -484 -6 -31 -20 -63 -30 -72 -18 -16
-19 -14 -19 56 0 173 -113 387 -253 482 -46 31 -49 35 -32 45 24 14 58 6 113
-27z m1484 -8 c19 -18 21 -55 4 -72 -17 -17 -54 -15 -72 4 -21 21 -20 40 4 64
24 24 43 25 64 4z m-1504 -112 c121 -131 186 -334 150 -464 -13 -46 -76 -103
-170 -152 -39 -21 -70 -40 -70 -43 0 -6 89 -235 162 -416 30 -75 30 -78 12
-92 -65 -50 -216 -75 -330 -56 -66 12 -174 53 -174 67 0 3 13 22 30 40 16 19
34 51 41 72 10 36 7 52 -48 220 l-59 181 42 30 c53 37 106 116 134 196 11 33
27 116 36 185 8 69 19 158 24 198 10 71 32 130 54 144 19 13 107 -45 166 -110z
m-3659 69 c31 -10 75 -22 100 -25 24 -4 58 -10 74 -13 27 -5 28 -6 9 -13 -12
-5 -47 -2 -80 6 -32 7 -71 14 -86 14 -15 0 -40 11 -55 25 -34 30 -31 30 38 6z
m1441 -33 c8 -7 37 -47 64 -87 27 -41 73 -101 103 -133 l54 -59 -31 -32 c-87
-91 -142 -231 -142 -364 l0 -84 -97 75 c-54 41 -131 105 -170 141 l-73 67 0
67 c0 153 85 320 199 393 49 31 69 34 93 16z m1939 -4 c30 -15 30 -17 24 -67
-4 -29 -8 -53 -9 -54 0 0 -31 1 -67 4 l-66 5 9 56 c5 30 11 59 14 64 8 13 63
9 95 -8z m-13 -150 c18 -5 22 -13 22 -49 0 -26 -6 -50 -16 -59 -18 -19 -63
-21 -99 -4 -23 10 -26 17 -21 41 3 16 6 40 6 53 0 22 4 24 43 24 23 0 52 -3
65 -6z m-145 -66 c-9 -87 -34 -184 -56 -221 l-23 -38 -23 25 c-54 57 -56 57
-432 -60 -189 -58 -366 -113 -394 -121 -27 -8 -65 -29 -83 -46 l-34 -32 -24
30 c-29 37 -54 107 -54 153 0 29 3 33 18 27 9 -4 75 -10 145 -13 137 -5 245 9
472 64 133 32 293 112 405 203 47 38 86 70 87 70 0 1 -1 -18 -4 -41z m120 -83
c42 0 41 3 26 -63 -10 -47 -12 -50 -45 -54 -23 -3 -46 2 -65 14 -29 18 -30 21
-24 61 10 56 12 58 43 50 15 -5 44 -8 65 -8z m-1642 -64 c-85 -109 -124 -227
-119 -359 3 -80 1 -89 -13 -82 -31 17 -42 42 -47 109 -8 122 39 256 124 350
44 49 47 51 65 35 18 -16 18 -18 -10 -53z m-983 7 c26 -26 2 -98 -33 -98 -19
0 -55 39 -55 60 0 40 60 66 88 38z m1118 -38 l62 -34 5 -96 c7 -147 64 -270
154 -335 46 -33 43 -27 164 -420 43 -139 74 -185 124 -185 22 0 23 -3 18 -37
-9 -71 -58 -203 -73 -203 -9 0 -102 114 -148 181 -40 59 -121 223 -155 314
-52 137 -69 222 -74 378 -5 115 -9 147 -19 147 -11 0 -14 -27 -14 -129 l0
-129 -47 14 c-27 8 -83 31 -125 51 -70 32 -79 40 -88 72 -23 85 -4 225 45 320
34 66 84 133 98 129 7 -2 40 -19 73 -38z m2614 -31 c14 -25 2 -48 -28 -56 -51
-12 -83 41 -42 70 25 18 57 12 70 -14z m-1200 -4 c14 -8 42 -14 63 -15 l38 0
-32 -60 c-33 -62 -49 -71 -90 -50 -10 6 -26 24 -34 40 -14 26 -13 33 2 65 19
40 19 40 53 20z m-200 -11 c0 -3 -17 -26 -37 -51 -32 -39 -41 -44 -65 -39 -20
4 -132 -26 -371 -100 -188 -59 -350 -109 -361 -112 -15 -4 -17 -2 -8 14 19 35
46 51 137 79 50 15 225 70 390 121 314 97 315 98 315 88z m-1042 -28 c43 -15
52 -22 52 -41 0 -20 -6 -24 -47 -27 -27 -3 -56 -8 -65 -12 -16 -7 -18 -2 -18
49 0 42 3 56 13 53 6 -3 36 -13 65 -22z m1092 -5 c8 -16 4 -25 -20 -50 -58
-57 -24 -154 59 -167 l38 -6 51 -162 c29 -89 52 -174 52 -190 0 -32 -33 -92
-59 -105 -15 -9 -27 22 -105 272 -49 155 -95 292 -103 305 -13 21 -11 26 27
72 23 28 44 50 46 50 2 0 8 -9 14 -19z m74 -63 c6 -12 26 -32 44 -45 l33 -22
-38 -25 c-45 -31 -86 -33 -113 -6 -30 30 -25 58 17 96 39 36 40 36 57 2z
m-1105 -40 c23 -63 23 -68 -2 -77 -13 -5 -38 -23 -55 -40 l-31 -31 -20 55
c-28 74 -27 83 12 100 50 22 86 19 96 -7z m891 7 c30 -16 30 -14 130 -340 11
-33 32 -103 48 -155 28 -91 29 -96 12 -113 -9 -10 -82 -39 -161 -64 -408 -128
-621 -193 -637 -193 -37 0 -61 40 -101 167 -136 436 -132 422 -106 457 10 13
132 56 392 137 208 65 382 118 386 118 4 1 21 -6 37 -14z m-828 -136 l27 -30
-29 -41 c-17 -23 -30 -47 -30 -55 0 -23 -16 -14 -59 32 -47 51 -45 71 12 105
42 26 48 25 79 -11z m2983 -305 c12 -12 13 -19 4 -30 -6 -8 -18 -14 -26 -14
-19 0 -28 27 -13 45 15 19 15 19 35 -1z m-3380 -119 c0 -23 -5 -31 -21 -33
-30 -4 -48 21 -34 48 18 33 55 23 55 -15z m2143 -71 c30 -21 30 -74 0 -100
-52 -46 -54 -46 -55 -9 -1 19 -11 48 -23 65 -22 30 -22 32 -4 45 25 19 54 19
82 -1z m-648 -30 c0 -19 -32 -74 -48 -83 -32 -17 -46 -13 -87 22 l-38 33 69
26 c48 17 74 23 87 16 9 -5 17 -11 17 -14z m564 -57 c16 -43 -8 -81 -62 -100
-26 -10 -49 -17 -52 -17 -3 0 -4 17 -2 38 2 20 -1 48 -6 62 -9 23 -6 27 32 47
35 18 44 20 61 9 11 -7 24 -25 29 -39z m-439 -16 c7 -31 -6 -71 -28 -89 -12
-10 -25 -9 -68 8 -76 28 -88 37 -66 46 10 3 29 26 43 49 l25 43 44 -14 c34
-12 45 -21 50 -43z m-227 -53 l52 -35 -62 -28 c-130 -58 -552 -194 -565 -182
-2 2 2 39 8 81 5 43 8 84 5 92 -3 7 0 16 5 20 6 3 108 37 227 74 l217 67 30
-27 c17 -15 54 -43 83 -62z m374 48 c12 -18 9 -91 -4 -104 -12 -12 -87 -16
-124 -6 -20 5 -21 7 -7 35 8 17 15 45 16 64 l1 33 55 -5 c31 -3 59 -11 63 -17z
m143 -10 c25 -60 -5 -106 -69 -106 l-41 0 0 65 0 64 35 4 c19 2 41 4 48 5 7 1
19 -13 27 -32z m292 -109 c43 -35 118 -83 166 -107 76 -40 89 -50 103 -85 9
-22 18 -74 21 -115 12 -174 -81 -355 -221 -427 -47 -24 -56 -25 -140 -18 -164
12 -278 44 -414 114 -75 40 -235 154 -297 212 -17 16 -36 29 -43 29 -26 0 -10
-30 37 -69 48 -40 49 -42 110 -227 l62 -187 -29 -36 c-92 -115 -316 -219 -524
-243 -78 -9 -100 -9 -113 2 -48 40 -193 340 -255 530 l-38 115 32 35 c17 19
38 44 46 56 12 16 34 23 113 33 282 36 716 187 904 314 42 28 66 37 120 42 83
9 174 37 228 69 22 13 43 25 47 25 4 1 43 -27 85 -62z m168 52 c4 -5 4 -21 1
-35 -5 -19 -12 -25 -29 -22 -17 2 -23 11 -25 36 -3 28 0 32 22 32 14 0 28 -5
31 -11z m-819 -81 c3 -13 15 -35 26 -51 l19 -27 -73 -35 c-40 -19 -78 -35 -84
-35 -12 0 -64 108 -64 131 0 8 26 26 58 40 51 23 60 25 84 13 15 -8 30 -24 34
-36z m-756 -23 c0 -63 -13 -75 -78 -75 -49 0 -63 16 -56 62 6 31 11 37 53 51
78 26 81 25 81 -38z m835 3 c14 -25 15 -32 4 -39 -10 -6 -20 2 -36 29 -28 45
-28 52 -5 45 10 -2 27 -18 37 -35z m-2680 -8 c10 -17 -5 -49 -26 -55 -26 -8
-49 11 -49 41 0 41 53 50 75 14z m2765 21 c0 -2 -8 -10 -17 -17 -13 -9 -22 -9
-30 -2 -22 18 -14 28 17 26 17 -1 30 -4 30 -7z m-342 -83 c31 -70 34 -87 13
-74 -12 8 -44 78 -54 119 -13 51 9 27 41 -45z m-48 -15 c14 -37 26 -70 28 -73
3 -7 -115 -50 -134 -50 -12 0 -54 105 -54 133 0 13 89 53 125 56 6 1 21 -29
35 -66z m-166 -66 c20 -58 21 -70 9 -74 -22 -9 -33 13 -59 120 -5 24 -4 28 10
25 11 -2 25 -27 40 -71z m-418 46 c24 2 44 3 44 2 0 -2 -9 -33 -20 -69 -20
-64 -22 -66 -55 -66 -21 0 -44 9 -64 25 -28 24 -29 27 -17 58 7 18 16 40 19
50 6 15 10 16 28 6 12 -6 42 -9 65 -6z m358 -61 l25 -72 -50 -15 c-28 -8 -65
-17 -83 -20 -32 -7 -32 -6 -50 53 -10 33 -17 65 -14 72 3 10 137 61 146 55 1
-1 13 -34 26 -73z m1499 13 c43 -14 120 -31 172 -39 123 -19 130 -23 144 -93
27 -141 42 -533 21 -587 -21 -56 -203 -74 -269 -26 -32 22 -53 77 -66 171 -6
46 -6 47 37 72 63 37 105 84 90 99 -10 10 -17 7 -35 -14 -12 -14 -34 -33 -49
-43 -26 -16 -27 -16 -30 7 -3 22 -7 23 -74 23 l-70 0 -64 -57 c-35 -32 -67
-58 -71 -58 -4 0 18 26 50 58 100 100 147 230 139 387 -3 49 -8 98 -13 108 -9
22 -5 22 88 -8z m-1686 -65 c19 -66 19 -70 3 -70 -19 0 -50 73 -50 117 0 48
26 21 47 -47z m-77 46 c0 -7 7 -37 17 -65 9 -28 13 -54 9 -58 -6 -6 -108 -23
-113 -18 -2 1 8 28 21 61 12 32 26 67 29 77 8 20 37 23 37 3z m-2670 -15 c0
-23 -61 -91 -81 -91 -8 0 -22 -14 -32 -31 -17 -30 -20 -31 -61 -26 -35 5 -47
3 -61 -13 -20 -22 -50 -26 -60 -9 -10 16 86 104 147 135 47 24 119 51 141 53
4 1 7 -8 7 -18z m283 -19 c57 -25 73 -42 40 -42 -10 0 -27 -7 -37 -15 -27 -20
-79 -19 -106 3 -18 15 -21 24 -15 55 7 34 9 36 34 31 14 -4 52 -18 84 -32z
m-186 -9 c4 -10 16 -30 26 -45 19 -25 19 -28 3 -52 -9 -15 -22 -26 -28 -26 -6
0 -8 -3 -5 -6 4 -4 12 -2 20 4 7 6 26 10 42 9 17 -2 41 5 57 16 24 18 32 18
73 8 31 -8 51 -8 65 -1 10 5 21 10 24 10 12 0 35 -60 42 -107 6 -49 5 -51 -24
-68 -25 -15 -28 -20 -17 -32 19 -18 28 -16 21 4 -4 10 -4 14 0 10 4 -4 13 -2
21 5 20 16 25 6 28 -63 4 -63 3 -63 -28 -78 -24 -11 -28 -15 -14 -18 22 -6 22
-12 0 -29 -16 -11 -13 -12 20 -7 32 5 37 3 31 -11 -5 -14 -9 -15 -16 -4 -5 8
-8 -5 -6 -36 1 -32 -2 -51 -10 -54 -7 -2 -10 -9 -6 -15 3 -7 -1 -4 -9 5 -8 10
-17 15 -21 11 -4 -4 -11 -2 -15 6 -7 10 -10 9 -14 -3 -4 -9 -1 -16 5 -16 6 0
8 -3 5 -7 -4 -3 0 -14 9 -24 15 -17 15 -20 -3 -43 -16 -20 -23 -23 -34 -13
-10 9 -9 7 1 -7 13 -16 12 -20 -5 -32 -11 -8 -25 -12 -33 -9 -7 2 -11 1 -8 -4
6 -8 -16 -31 -44 -46 -9 -5 -7 1 5 15 21 24 5 20 -27 -8 -14 -12 -20 -12 -33
-2 -8 7 -15 18 -15 26 0 7 -4 16 -10 19 -5 3 -7 0 -4 -9 3 -8 1 -31 -6 -50
-10 -32 -16 -35 -78 -50 -92 -21 -124 -23 -129 -8 -3 7 5 12 19 12 13 0 31 6
40 13 24 18 52 67 39 67 -6 0 -16 -9 -23 -20 -9 -14 -24 -20 -49 -20 -40 0
-58 15 -74 64 -6 17 -16 30 -23 29 -6 -2 -9 4 -6 12 4 8 -1 17 -10 21 -9 3
-14 9 -12 13 3 4 1 13 -5 21 -7 13 -9 13 -10 0 -1 -8 0 -28 1 -43 2 -27 -18
-66 -47 -95 -7 -7 -13 -20 -13 -28 0 -32 -39 1 -99 85 -36 51 -39 67 -12 76
11 3 34 28 50 55 17 28 37 50 44 50 8 0 14 6 14 13 0 20 -114 13 -138 -9 -28
-25 -39 -6 -39 73 0 53 3 64 22 77 12 9 36 16 53 16 21 0 40 9 56 26 19 21 31
25 59 21 19 -3 29 -3 23 0 -18 7 -16 24 5 39 14 10 6 10 -38 -1 -30 -7 -67
-18 -82 -25 -38 -18 -61 1 -54 44 6 39 41 65 88 66 20 0 40 5 43 10 3 6 17 10
30 10 28 0 48 -29 39 -57 -3 -10 1 -7 9 7 9 14 18 24 21 23 3 -2 13 -3 21 -3
13 0 14 4 4 21 -6 12 -7 19 -1 15 5 -3 12 12 16 34 4 29 14 44 39 61 17 13 47
35 65 51 37 32 70 36 79 11z m2372 -22 c15 -11 41 -23 59 -28 l33 -8 -31 -49
c-28 -43 -34 -47 -58 -41 -34 8 -72 43 -72 66 0 16 31 79 38 79 2 0 16 -9 31
-19z m2331 -67 c28 -122 39 -510 15 -533 -7 -7 -11 48 -12 164 -2 160 -13 307
-29 395 -9 49 15 26 26 -26z m-2358 -80 c24 -12 27 -18 17 -30 -17 -21 -65
-17 -89 8 -23 25 -25 40 -9 70 12 21 12 21 31 -5 11 -15 33 -34 50 -43z m1968
-243 c-14 -27 -18 -29 -95 -45 l-67 -14 29 30 c34 37 56 47 106 47 34 1 37 -1
27 -18z m-4017 -262 c-8 -8 -13 -7 -18 2 -5 8 -4 10 3 5 7 -4 12 -2 12 5 0 7
3 9 7 6 4 -4 2 -12 -4 -18z m3441 5 c19 -18 21 -45 4 -62 -39 -39 -100 17 -63
58 22 24 38 25 59 4z m-374 -104 c13 -52 25 -142 28 -200 3 -74 10 -116 23
-141 10 -21 27 -70 39 -110 l20 -73 -33 -34 c-110 -114 -399 -241 -617 -270
-59 -8 -62 -8 -77 15 -21 31 -20 101 2 146 23 50 78 110 130 145 42 28 48 29
72 17 15 -8 30 -12 35 -9 16 10 8 25 -19 36 l-28 11 39 11 c21 7 49 22 63 34
29 26 26 45 -22 149 -41 88 -62 102 -126 80 -24 -8 -71 -20 -104 -27 l-59 -12
-23 28 c-13 16 -23 32 -23 35 0 4 33 10 73 14 192 18 420 113 530 221 23 22
45 38 48 35 4 -3 17 -49 29 -101z m-3580 -19 c18 -35 12 -51 -20 -51 -25 0
-30 4 -30 23 0 23 16 47 32 47 4 0 12 -9 18 -19z m2012 -88 c36 -32 14 -103
-32 -103 -19 0 -60 44 -60 64 0 22 31 56 52 56 12 0 30 -7 40 -17z m3126 -5
c28 -28 1 -75 -38 -63 -33 11 -21 75 15 75 6 0 16 -5 23 -12z m-1973 -106 c19
-13 46 -63 65 -117 17 -50 17 -54 2 -69 -10 -8 -37 -19 -62 -25 -40 -9 -47 -8
-69 12 -44 40 -130 150 -125 159 3 4 17 8 32 9 15 0 52 8 82 19 67 22 63 21
75 12z m525 -392 c-52 -97 -553 -293 -667 -261 -28 8 -28 8 12 15 222 38 458
135 605 249 44 34 69 33 50 -3z"/>
<path d="M970 4993 c0 -42 70 -78 177 -90 60 -7 103 13 103 47 0 26 -16 26
-23 0 -4 -17 -13 -20 -69 -20 -82 1 -159 27 -175 60 -12 24 -13 24 -13 3z"/>
<path d="M552 4864 c-34 -15 -112 -87 -112 -104 0 -5 17 7 39 29 21 21 59 45
84 54 43 14 48 14 63 0 35 -35 0 -125 -85 -216 -54 -58 -106 -87 -156 -87 -39
0 -38 -3 -17 60 2 8 -3 5 -13 -8 -28 -38 -31 -96 -6 -121 11 -11 29 -21 39
-21 37 0 127 55 194 118 120 114 170 252 105 297 -26 18 -91 18 -135 -1z m123
-18 c27 -20 23 -74 -11 -137 -59 -108 -228 -242 -283 -224 -26 8 -28 25 -3 25
39 0 143 61 192 112 79 83 109 164 80 219 -12 22 -2 25 25 5z"/>
<path d="M1252 4869 c2 -7 10 -15 17 -17 8 -3 12 1 9 9 -2 7 -10 15 -17 17 -8
3 -12 -1 -9 -9z"/>
<path d="M363 4797 c-28 -30 -45 -65 -38 -77 3 -5 -1 -23 -10 -40 -25 -48 -3
-34 33 21 36 54 36 77 1 38 l-21 -24 16 25 c9 14 23 35 32 48 22 31 13 38 -13
9z"/>
<path d="M764 4805 c-18 -14 -18 -14 7 -15 14 0 34 7 45 15 18 14 18 14 -7 15
-14 0 -34 -7 -45 -15z"/>
<path d="M763 4763 c-21 -8 -15 -22 7 -16 11 3 20 9 20 14 0 10 -8 10 -27 2z"/>
<path d="M1518 4683 c17 -30 15 -38 -5 -22 -15 13 -15 12 -3 -11 8 -15 15 -20
18 -12 2 6 7 10 12 7 14 -9 -2 34 -18 47 -13 11 -14 10 -4 -9z"/>
<path d="M1101 4620 c0 -14 3 -32 9 -40 15 -24 18 -7 4 30 -11 31 -13 32 -13
10z"/>
<path d="M1130 4611 c0 -19 12 -41 20 -36 10 6 1 45 -11 45 -5 0 -9 -4 -9 -9z"/>
<path d="M650 4572 c0 -11 22 -32 32 -32 5 0 4 9 -2 20 -11 20 -30 28 -30 12z"/>
<path d="M610 4548 c1 -18 39 -62 47 -55 10 10 -18 67 -33 67 -8 0 -14 -6 -14
-12z"/>
<path d="M1042 4535 c-64 -20 -107 -53 -152 -116 -104 -148 -117 -310 -33
-408 45 -53 80 -71 138 -71 121 0 232 133 272 326 15 69 15 89 4 138 -17 78
-54 119 -121 134 -60 14 -54 14 -108 -3z m127 -33 c55 -28 76 -80 75 -187 0
-65 -6 -106 -21 -147 -40 -107 -114 -188 -174 -188 -38 0 -86 36 -110 81 -18
36 -21 55 -17 123 5 96 39 180 95 238 20 21 34 40 31 43 -10 10 -90 -81 -115
-132 -14 -29 -30 -86 -36 -126 -13 -97 1 -148 58 -204 45 -46 44 -51 -8 -29
-48 19 -93 76 -106 134 -31 127 63 327 181 386 61 30 100 33 147 8z"/>
<path d="M1660 4511 c-20 -38 -3 -205 26 -249 13 -20 18 -21 31 -10 15 12 15
13 0 16 -21 4 -37 82 -37 175 l0 72 20 -25 c22 -28 25 -24 10 14 -11 31 -35
34 -50 7z"/>
<path d="M775 4496 c20 -30 62 -59 69 -47 3 5 -7 17 -22 26 -15 10 -31 24 -35
32 -4 7 -12 13 -18 13 -5 0 -2 -11 6 -24z"/>
<path d="M816 4505 c7 -18 44 -40 44 -27 0 10 -33 42 -43 42 -3 0 -4 -7 -1
-15z"/>
<path d="M337 4430 c-18 -48 -25 -80 -18 -80 13 0 33 56 28 77 -3 14 -5 15
-10 3z"/>
<path d="M369 4425 c0 -6 -2 -20 -5 -32 -2 -13 0 -23 5 -23 15 0 24 41 12 53
-6 6 -11 7 -12 2z"/>
<path d="M210 4335 c-7 -8 -8 -15 -2 -15 5 0 15 7 22 15 7 8 8 15 2 15 -5 0
-15 -7 -22 -15z"/>
<path d="M1300 4280 c0 -11 40 -11 85 0 25 6 20 8 -27 9 -33 0 -58 -3 -58 -9z"/>
<path d="M1305 4250 c-8 -13 20 -24 42 -16 15 6 15 8 3 16 -20 13 -37 12 -45
0z"/>
<path d="M236 4175 c6 -47 21 -91 29 -83 5 4 -15 87 -26 113 -6 13 -7 3 -3
-30z"/>
<path d="M271 4154 c0 -11 3 -14 6 -6 3 7 2 16 -1 19 -3 4 -6 -2 -5 -13z"/>
<path d="M1667 4128 c-9 -35 5 -75 20 -56 17 21 26 58 14 58 -6 0 -12 -8 -12
-17 -1 -10 -4 -4 -8 12 l-7 30 -7 -27z"/>
<path d="M706 4085 c-92 -37 -91 -45 2 -19 60 17 79 28 65 37 -5 3 -35 -5 -67
-18z"/>
<path d="M1380 4109 c0 -11 30 -79 35 -79 13 0 3 40 -15 61 -10 13 -19 21 -20
18z"/>
<path d="M1424 4087 c3 -10 6 -25 6 -33 0 -8 5 -14 11 -14 12 0 2 40 -14 55
-7 7 -8 4 -3 -8z"/>
<path d="M724 4045 c-19 -14 -19 -14 3 -15 28 0 53 10 53 21 0 14 -34 11 -56
-6z"/>
<path d="M524 3935 c11 -46 26 -61 26 -25 0 22 -20 70 -30 70 -3 0 -2 -20 4
-45z"/>
<path d="M1100 3916 c0 -20 11 -46 19 -46 4 0 6 14 3 30 -4 30 -22 43 -22 16z"/>
<path d="M560 3910 c0 -5 5 -10 11 -10 5 0 7 5 4 10 -3 6 -8 10 -11 10 -2 0
-4 -4 -4 -10z"/>
<path d="M1055 3911 c-7 -12 8 -81 23 -107 9 -16 11 -10 12 33 0 70 -16 104
-35 74z"/>
<path d="M350 3863 c0 -5 14 -16 30 -25 22 -13 30 -14 30 -4 0 7 -11 18 -25
24 -30 14 -35 15 -35 5z"/>
<path d="M415 3860 c3 -5 11 -10 16 -10 6 0 7 5 4 10 -3 6 -11 10 -16 10 -6 0
-7 -4 -4 -10z"/>
<path d="M447 3845 c-20 -19 -27 -35 -26 -58 2 -30 2 -30 6 -5 3 22 11 29 40
34 42 8 100 -8 138 -38 48 -38 86 -148 50 -148 -8 0 -15 -4 -15 -10 0 -5 13
-10 29 -10 37 0 71 40 71 85 0 47 -55 124 -109 152 -64 33 -146 32 -184 -2z
m126 -6 c78 -21 164 -136 129 -171 -9 -9 -12 -8 -12 5 0 10 -7 32 -16 50 -34
67 -86 105 -159 118 -34 6 -36 7 -10 8 17 0 47 -4 68 -10z"/>
<path d="M1248 3863 c12 -2 32 -2 45 0 12 2 2 4 -23 4 -25 0 -35 -2 -22 -4z"/>
<path d="M1260 3830 c0 -5 6 -10 14 -10 8 0 18 5 21 10 3 6 -3 10 -14 10 -12
0 -21 -4 -21 -10z"/>
<path d="M763 3713 c-14 -5 -18 -23 -5 -23 5 0 17 7 28 15 14 11 15 14 4 14
-8 0 -21 -3 -27 -6z"/>
<path d="M763 3673 c-7 -2 -13 -9 -13 -14 0 -13 20 -11 55 6 l30 13 -30 0
c-16 0 -36 -2 -42 -5z"/>
<path d="M1135 3610 l-30 -8 28 -1 c16 0 26 -5 22 -10 -10 -17 11 -21 31 -6
12 9 14 14 6 15 -7 0 -10 5 -7 10 7 11 -6 11 -50 0z"/>
<path d="M2763 4681 c-173 -47 -288 -115 -410 -244 -138 -147 -209 -315 -220
-522 -18 -334 166 -641 469 -785 115 -55 184 -71 319 -77 442 -20 803 285 860
724 44 346 -150 696 -472 847 -115 55 -178 68 -334 72 -115 3 -153 1 -212 -15z
m-139 -263 c62 -88 -83 -335 -224 -384 -139 -48 -138 142 1 300 86 98 187 136
223 84z m-272 -465 c44 -39 3 -143 -56 -143 -57 0 -74 83 -27 131 33 33 56 36
83 12z m1258 -378 c0 -30 -27 -57 -54 -53 -31 4 -35 61 -5 82 28 19 59 5 59
-29z m-99 -75 c20 0 27 -45 12 -80 -18 -45 -49 -77 -95 -101 -112 -57 -162 32
-70 124 39 38 106 70 130 62 8 -3 18 -5 23 -5z"/>
<path d="M2995 2681 c-11 -5 -29 -19 -41 -32 -70 -80 -84 -163 -37 -219 54
-64 167 -90 223 -50 32 23 60 85 60 133 0 42 -43 126 -76 151 -30 21 -99 30
-129 17z m115 -41 c37 -26 60 -78 60 -134 0 -57 -14 -88 -50 -109 -43 -26 -54
-20 -26 13 71 85 15 229 -90 230 l-29 1 25 14 c30 18 72 12 110 -15z m-123
-65 c8 -23 -26 -58 -44 -44 -17 15 -17 24 3 43 20 20 33 20 41 1z"/>
<path d="M3570 2539 c-52 -16 -118 -36 -146 -45 -41 -12 -55 -22 -69 -49 -19
-33 -18 -34 10 -130 15 -52 32 -98 36 -101 5 -3 64 11 131 32 68 20 137 40
155 45 20 6 39 22 53 45 l21 36 -31 99 c-24 76 -35 99 -48 98 -9 0 -60 -14
-112 -30z m93 -123 c9 -36 19 -71 22 -78 4 -11 -29 -25 -131 -56 -76 -23 -138
-41 -139 -40 -8 11 -45 151 -41 155 5 6 244 80 261 82 6 1 19 -28 28 -63z"/>
<path d="M4670 5864 c-120 -15 -263 -41 -460 -84 -381 -84 -387 -84 -660 -84
-210 0 -263 3 -370 23 -145 26 -276 57 -445 105 -142 41 -132 31 60 -64 304
-149 564 -207 890 -197 199 6 304 24 565 97 438 122 557 147 754 159 l121 7
-75 18 c-73 17 -302 29 -380 20z"/>
<path d="M4895 5703 c-89 -7 -241 -38 -441 -89 -134 -34 -257 -58 -335 -67
l-124 -13 102 -13 c102 -13 265 -5 394 19 200 38 440 55 574 41 253 -27 406
-92 553 -235 111 -107 161 -214 207 -444 l26 -130 -21 -63 c-31 -93 -36 -207
-15 -305 19 -89 81 -219 105 -219 8 0 14 5 13 12 -2 7 3 10 11 7 33 -13 499
231 786 411 204 128 220 139 220 150 0 28 -83 145 -142 200 -158 146 -379 198
-580 135 l-58 -18 -44 88 c-65 130 -111 195 -203 288 -82 81 -133 114 -75 47
84 -95 167 -249 213 -394 l24 -74 -25 -16 c-14 -9 -46 -36 -72 -60 -32 -29
-49 -39 -51 -30 -3 8 -12 54 -21 103 -25 131 -54 211 -106 291 -178 272 -515
412 -915 378z m1465 -611 c0 -17 -134 -143 -203 -190 -65 -45 -181 -109 -250
-139 -38 -16 -35 0 13 74 53 80 130 150 218 196 87 46 222 82 222 59z m100 1
c-1 -13 -121 -136 -180 -185 -94 -79 -261 -171 -370 -204 -58 -18 -63 -17 -51
4 5 9 38 28 73 41 162 61 295 148 416 270 67 68 113 99 112 74z m155 -37 c33
-14 52 -35 21 -23 -9 4 -13 -2 -13 -18 0 -67 -229 -263 -420 -359 -77 -38
-243 -104 -304 -119 -42 -11 -55 -19 -60 -38 -5 -15 -7 -3 -8 36 -1 74 7 105
24 99 7 -3 57 13 111 36 211 89 351 179 501 322 45 43 89 78 98 78 8 0 31 -7
50 -14z m191 -128 l29 -33 -33 29 -32 30 4 -32 c2 -18 -1 -32 -6 -32 -6 0 -8
9 -5 20 7 27 1 25 -28 -6 -23 -25 -24 -27 -8 -57 l16 -31 -49 -44 c-144 -129
-258 -210 -400 -282 -154 -80 -413 -165 -434 -144 -5 5 -11 25 -15 44 l-6 35
73 19 c260 66 504 201 743 410 66 57 120 105 121 105 0 1 13 -14 30 -31z m-26
-63 c0 -1 -8 -10 -19 -19 -16 -15 -19 -15 -24 -2 -4 11 -1 13 10 9 10 -4 14
-2 10 4 -3 5 0 10 8 10 8 0 15 -1 15 -2z m46 -97 c4 -7 4 -10 0 -6 -9 8 -49
-29 -58 -52 -18 -48 -291 -236 -463 -319 -156 -76 -381 -151 -405 -136 -22 13
-7 25 48 40 305 84 571 230 835 457 38 32 34 31 43 16z"/>
<path d="M6578 5045 c13 -9 26 -14 29 -11 8 8 3 12 -27 21 l-25 7 23 -17z"/>
<path d="M2225 5694 c-117 -25 -253 -83 -291 -125 -16 -18 -14 -18 42 2 46 17
91 23 201 26 177 7 256 -6 561 -93 327 -93 360 -99 552 -99 151 1 172 3 245
28 142 47 137 52 -57 52 -197 1 -238 9 -571 110 -257 79 -396 105 -543 104
-66 -1 -128 -3 -139 -5z"/>
<path d="M6940 4651 c-19 -15 -51 -36 -70 -46 -19 -10 -60 -35 -90 -55 -87
-59 -329 -195 -525 -297 -196 -102 -193 -109 11 -28 156 62 315 146 403 212
35 26 77 57 95 68 17 11 48 37 70 58 21 21 41 36 43 33 7 -7 -28 -41 -41 -41
-6 0 -11 -4 -11 -10 -1 -18 -118 -125 -189 -172 -144 -95 -350 -189 -553 -251
-54 -16 -66 -17 -82 -5 -36 24 -35 -7 0 -38 111 -95 223 -140 365 -147 l102
-5 50 -106 c103 -214 124 -299 124 -486 0 -151 -22 -276 -82 -455 -43 -129
-31 -124 44 20 95 183 136 345 136 533 0 149 -24 259 -93 421 l-44 104 74 37
c49 24 96 58 141 103 129 127 189 281 180 465 -3 54 -9 102 -14 107 -6 6 -23
-1 -44 -19z m30 -53 c0 -11 -8 -31 -19 -44 -16 -20 -20 -22 -31 -9 -6 8 -10
20 -7 27 4 8 6 7 6 -4 1 -10 5 -18 11 -18 5 0 7 8 4 18 -5 13 -4 14 4 3 7 -9
12 -10 16 -2 9 14 -2 33 -15 25 -6 -3 -5 3 2 14 15 24 29 19 29 -10z m-50 -88
c0 -13 -1 -13 -10 0 -8 12 -10 12 -10 1 0 -8 -3 -11 -7 -8 -3 4 -13 -2 -20
-13 -8 -11 -19 -17 -25 -14 -7 5 -8 2 -3 -6 6 -10 4 -12 -8 -7 -10 3 -17 2
-17 -2 0 -5 7 -11 15 -15 8 -3 15 -1 15 4 0 5 9 14 20 20 28 15 25 8 -12 -26
-17 -16 -28 -22 -24 -14 4 8 0 6 -8 -4 -15 -19 -16 -19 -16 -2 0 17 -2 17 -25
2 -39 -26 -30 -11 31 46 31 29 64 51 72 50 14 -3 14 -2 1 14 -13 16 -12 16 9
3 12 -8 22 -21 22 -29z m14 -91 c-21 -21 -40 -36 -43 -33 -3 2 12 20 32 38 20
18 37 39 38 47 0 11 2 11 6 1 3 -8 -12 -31 -33 -53z m-180 -15 c3 -8 2 -13 -2
-10 -4 2 -12 -11 -18 -30 -10 -31 -10 -33 5 -21 9 8 26 22 38 32 12 10 19 23
16 28 -4 6 -1 7 7 2 10 -6 3 -17 -27 -44 -22 -20 -60 -54 -85 -76 -63 -57
-219 -135 -393 -196 -82 -29 -151 -57 -153 -61 -4 -10 -35 6 -81 40 l-34 25
93 19 c194 39 396 133 565 262 33 25 61 46 61 46 1 0 5 -7 8 -16z m122 -39
c-1 -8 -5 -17 -8 -21 -5 -4 -4 16 1 34 3 9 9 -1 7 -13z m-51 -55 c-31 -32 -48
-39 -39 -15 4 8 10 13 15 10 4 -3 13 4 19 15 6 11 16 20 22 20 7 0 -1 -13 -17
-30z m98 -15 c-3 -9 -8 -14 -10 -11 -3 3 -2 9 2 15 9 16 15 13 8 -4z m-27 -53
c-16 -30 -113 -118 -155 -140 -14 -7 -40 -22 -58 -33 l-32 -20 2 21 c1 12 10
26 20 32 10 5 26 16 35 24 9 7 46 36 82 63 54 41 66 46 72 32 5 -13 7 -13 8
-1 2 8 2 19 1 23 -1 5 3 6 8 3 5 -3 11 1 15 9 3 8 8 15 11 15 3 0 -1 -13 -9
-28z m-176 -14 c-13 -10 -25 -16 -28 -13 -8 8 17 32 34 32 14 0 12 -4 -6 -19z
m-80 -46 c0 -11 -56 -43 -64 -35 -3 3 -6 2 -6 -4 0 -17 -180 -100 -275 -127
-112 -31 -149 -19 -43 14 101 33 235 87 285 117 23 13 47 22 52 19 5 -3 14 1
21 9 13 16 30 20 30 7z m-3 -129 c2 -5 -19 -20 -47 -31 -28 -12 -48 -17 -45
-12 8 13 3 12 -30 0 -14 -5 -24 -14 -21 -19 3 -5 -1 -12 -10 -15 -10 -4 -13
-2 -8 6 5 8 0 9 -17 5 -13 -4 -28 -7 -34 -8 -5 0 1 -5 15 -9 18 -6 3 -8 -49
-9 -79 -1 -95 6 -23 10 23 2 42 6 42 10 0 3 12 9 28 12 15 3 61 21 102 41 76
35 91 38 97 19z"/>
<path d="M6670 4090 c-9 -6 -10 -10 -3 -10 6 0 15 5 18 10 8 12 4 12 -15 0z"/>
<path d="M6605 4050 c-3 -5 -2 -10 4 -10 5 0 13 5 16 10 3 6 2 10 -4 10 -5 0
-13 -4 -16 -10z"/>
<path d="M5726 4200 c-50 -54 -54 -73 -16 -78 20 -3 101 14 123 25 8 5 -44
103 -54 103 -4 0 -27 -23 -53 -50z"/>
<path d="M6434 3610 c44 -106 59 -357 31 -514 -23 -132 -74 -270 -148 -400
-119 -211 -167 -315 -185 -406 -11 -54 -28 -100 -45 -126 -69 -102 -93 -245
-63 -363 17 -68 62 -156 95 -185 11 -10 23 -37 26 -60 8 -54 -10 -272 -31
-374 -57 -276 -239 -508 -465 -593 l-54 -20 47 5 c164 19 341 141 458 318 90
137 149 322 166 516 l7 83 26 -6 c14 -4 29 -10 33 -14 11 -10 -29 -424 -47
-496 -8 -33 -33 -96 -55 -140 -118 -241 -371 -412 -769 -521 -290 -80 -466
-84 -787 -20 -66 13 -120 22 -122 21 -8 -7 224 -91 328 -118 106 -28 128 -31
285 -31 147 0 187 4 298 27 228 49 434 130 581 230 84 57 196 170 249 252 101
158 126 262 134 563 l6 212 32 0 c119 0 256 61 338 150 234 253 125 651 -207
752 -79 24 -199 21 -274 -6 -43 -15 -43 -15 -37 7 4 12 46 103 95 202 140 286
165 383 164 625 -1 126 -5 170 -22 233 -24 87 -68 194 -89 217 -11 12 -11 8 1
-20z m117 -1280 c46 -8 61 -17 101 -60 41 -44 50 -49 68 -40 25 14 51 1 80
-40 l21 -30 -41 -6 c-36 -6 -40 -9 -34 -28 4 -11 7 -27 7 -34 0 -13 36 -11 88
4 10 3 20 -5 27 -21 22 -48 17 -55 -42 -55 l-54 0 1 -40 c2 -37 4 -40 27 -36
14 3 42 8 63 12 l37 6 0 -40 0 -41 -57 -7 c-39 -5 -64 -14 -80 -30 -27 -27
-30 -48 -5 -40 16 5 120 26 129 26 7 0 -8 -64 -18 -76 -4 -5 -28 -11 -53 -13
-60 -3 -132 -25 -128 -39 1 -7 -3 -12 -9 -12 -5 0 -7 -5 -4 -10 4 -6 1 -9 -7
-8 -7 2 -12 -3 -10 -10 1 -8 -2 -11 -8 -7 -5 3 -14 -5 -19 -18 -6 -14 -16 -29
-23 -33 -9 -5 -8 -2 2 11 17 21 9 18 -41 -16 -47 -33 -133 -61 -209 -70 -75
-8 -75 -8 -127 28 -29 19 -50 39 -47 44 3 5 2 9 -3 8 -22 -4 -32 6 -73 68 -31
48 -44 78 -45 104 0 20 -3 35 -7 33 -11 -7 -21 104 -15 158 10 78 70 190 136
250 106 97 232 134 372 108z m159 -630 c0 -5 -2 -10 -4 -10 -3 0 -8 5 -11 10
-3 6 -1 10 4 10 6 0 11 -4 11 -10z m60 -95 c-23 -24 -68 -57 -99 -73 -58 -31
-166 -60 -178 -49 -8 9 36 57 53 57 7 0 26 11 42 25 17 14 39 25 50 25 11 0
46 13 78 29 106 52 116 49 54 -14z"/>
<path d="M6101 1724 c0 -11 3 -14 6 -6 3 7 2 16 -1 19 -3 4 -6 -2 -5 -13z"/>
</g>
</svg>
